<?xml version="1.0" standalone="no"?>
<!DOCTYPE svg PUBLIC "-//W3C//DTD SVG 20010904//EN"
 "http://www.w3.org/TR/2001/REC-SVG-20010904/DTD/svg10.dtd">
<svg version="1.0" xmlns="http://www.w3.org/2000/svg"
 width="512.000000pt" height="512.000000pt" viewBox="0 0 512.000000 512.000000"
 preserveAspectRatio="xMidYMid meet">

<g transform="translate(0.000000,512.000000) scale(0.100000,-0.100000)"
fill="#000000" stroke="none">
<path d="M2332 5110 c-55 -5 -78 -12 -94 -28 -27 -27 -28 -77 -1 -103 19 -19
28 -20 208 -13 179 7 190 8 212 30 30 30 29 69 -2 99 -23 24 -29 25 -137 24
-62 -1 -146 -5 -186 -9z"/>
<path d="M2950 5060 c-26 -26 -26 -81 0 -105 20 -18 160 -54 211 -55 32 0 69
38 69 72 0 47 -28 68 -120 88 -108 25 -135 25 -160 0z"/>
<path d="M1743 4985 c-190 -64 -213 -78 -213 -138 0 -28 38 -67 66 -67 10 0
77 21 149 46 71 25 149 53 171 61 89 30 75 143 -18 143 -13 0 -82 -20 -155
-45z"/>
<path d="M3560 4942 c-199 -52 -349 -241 -350 -438 l0 -51 -102 29 c-690 195
-1417 11 -1942 -491 -80 -77 -194 -214 -265 -319 -451 -671 -452 -1548 -3
-2218 536 -799 1550 -1106 2432 -737 844 353 1342 1240 1205 2147 -60 395
-249 781 -521 1065 l-71 75 62 90 c71 103 99 156 126 235 90 262 -64 545 -336
616 -76 19 -153 18 -235 -3z m255 -166 c101 -46 167 -132 185 -241 19 -119
-27 -233 -175 -430 -52 -70 -106 -142 -118 -161 l-24 -34 -117 157 c-64 87
-136 196 -159 242 -40 81 -42 88 -42 175 0 79 4 98 27 141 28 54 96 123 147
149 79 41 189 42 276 2z m-1240 -418 c19 -135 72 -256 151 -338 112 -117 260
-160 441 -129 48 8 68 17 83 36 27 35 25 69 -6 100 -22 22 -31 25 -67 19 -111
-17 -137 -17 -189 -7 -135 29 -224 136 -256 310 l-9 52 56 -6 c101 -12 244
-44 358 -81 l113 -36 35 -67 c19 -36 84 -132 143 -212 135 -181 157 -218 176
-299 17 -71 34 -90 82 -90 40 0 74 39 74 85 0 30 43 128 75 169 14 19 15 19
36 0 12 -10 55 -59 97 -109 442 -526 560 -1241 309 -1874 l-41 -104 -70 7
c-121 10 -184 38 -230 99 -34 45 -34 139 -1 245 50 157 30 267 -65 362 -120
120 -298 135 -675 55 -88 -18 -184 -38 -213 -44 -94 -19 -164 -14 -203 14
-109 81 -106 230 6 292 22 12 87 31 145 43 224 45 335 144 334 297 -1 89 -43
171 -134 257 -120 113 -243 161 -394 154 -177 -8 -244 -59 -411 -313 -155
-236 -249 -313 -428 -352 -129 -28 -224 3 -267 87 -22 44 -26 110 -8 143 6 12
40 56 75 97 203 237 311 467 321 684 6 139 -9 223 -57 319 l-38 75 106 31
c163 48 335 76 483 80 l56 1 7 -52z m-766 -173 c69 -109 80 -292 27 -444 -50
-144 -143 -295 -266 -436 -94 -108 -105 -133 -105 -245 0 -84 3 -101 27 -145
35 -67 90 -118 163 -152 53 -25 71 -28 160 -28 113 0 206 24 310 78 94 50 217
179 320 337 156 240 174 255 315 255 74 0 93 -4 150 -31 118 -56 200 -149 200
-229 0 -33 -6 -47 -32 -72 -46 -43 -62 -50 -190 -77 -137 -29 -199 -58 -257
-121 -61 -67 -85 -125 -85 -211 0 -60 5 -81 32 -137 20 -40 50 -81 78 -106
114 -100 181 -104 543 -31 341 69 483 68 559 -3 59 -55 65 -111 26 -232 -87
-263 34 -471 297 -515 38 -7 69 -14 69 -16 0 -11 -78 -126 -138 -203 -130
-167 -315 -330 -502 -443 l-75 -45 -11 81 c-18 129 -47 191 -123 267 -74 73
-127 103 -166 93 -31 -8 -55 -40 -55 -74 0 -32 13 -49 67 -83 84 -53 123 -134
123 -253 0 -115 -1 -116 -132 -158 -240 -77 -488 -107 -716 -88 -128 11 -280
38 -372 66 l-45 14 45 12 c77 21 194 71 218 93 32 30 30 79 -5 107 -33 26 -45
24 -176 -24 -107 -40 -238 -66 -326 -66 -52 0 -66 5 -154 59 -668 408 -1010
1184 -856 1945 109 541 449 997 942 1266 40 22 75 40 80 40 4 0 20 -20 36 -45z"/>
<path d="M3632 4537 c-28 -30 -29 -80 -2 -107 30 -30 83 -27 109 6 28 35 26
69 -4 99 -31 32 -74 33 -103 2z"/>
<path d="M1273 2521 c-71 -24 -113 -59 -148 -122 -27 -48 -30 -63 -30 -139 0
-98 21 -157 102 -293 96 -161 229 -269 350 -284 103 -12 240 44 334 137 76 76
103 134 107 237 4 71 1 89 -22 138 -51 112 -144 196 -293 267 -157 74 -297 95
-400 59z m197 -147 c144 -33 306 -138 350 -225 23 -45 26 -106 6 -153 -41 -97
-196 -181 -288 -156 -79 22 -176 130 -251 279 -35 70 -42 94 -42 142 0 63 17
92 70 115 39 17 76 17 155 -2z"/>
<path d="M2490 2229 c-250 -31 -442 -291 -401 -542 21 -125 70 -218 225 -425
127 -170 153 -214 166 -283 11 -57 44 -99 80 -99 35 0 69 42 80 97 13 75 35
113 159 277 163 217 212 307 232 435 30 199 -76 402 -260 494 -39 20 -93 39
-119 42 -26 3 -58 7 -72 9 -14 1 -54 -1 -90 -5z m214 -183 c165 -81 222 -278
133 -460 -21 -40 -87 -141 -148 -222 -61 -82 -115 -156 -120 -164 -8 -13 -10
-13 -18 0 -5 8 -59 82 -120 164 -61 81 -127 181 -147 222 -98 198 -24 407 169
476 74 27 177 20 251 -16z"/>
<path d="M2530 1827 c-39 -20 -56 -58 -41 -94 31 -76 132 -66 147 14 5 27 1
37 -24 63 -34 33 -45 36 -82 17z"/>
<path d="M1169 4709 c-108 -69 -227 -163 -238 -187 -15 -33 -14 -46 10 -76 32
-41 74 -35 145 20 32 26 96 71 141 101 46 30 88 63 94 74 23 45 -16 109 -67
109 -11 0 -50 -18 -85 -41z"/>
<path d="M4303 4324 c-20 -20 -24 -32 -19 -55 7 -37 130 -175 162 -183 53 -14
103 35 90 87 -3 14 -38 59 -77 101 -81 86 -110 96 -156 50z"/>
<path d="M602 4208 c-105 -125 -162 -208 -162 -233 0 -38 37 -75 75 -75 28 0
40 8 67 43 19 23 71 88 116 144 67 83 82 108 82 136 0 43 -26 67 -73 67 -33 0
-42 -7 -105 -82z"/>
<path d="M4642 3887 c-31 -33 -27 -67 14 -138 20 -34 57 -104 81 -155 44 -92
63 -114 101 -114 33 0 72 38 72 71 0 35 -132 302 -166 336 -30 30 -74 30 -102
0z"/>
<path d="M281 3694 c-27 -19 -84 -136 -130 -268 -27 -77 -30 -91 -18 -114 18
-39 60 -57 94 -40 14 7 30 20 34 28 23 45 122 300 126 325 9 59 -58 102 -106
69z"/>
<path d="M4928 3249 c-40 -23 -41 -43 -8 -217 18 -92 36 -177 41 -190 19 -50
94 -54 126 -6 16 24 16 32 0 132 -27 166 -51 253 -77 274 -25 20 -56 23 -82 7z"/>
<path d="M56 3007 c-24 -24 -37 -100 -52 -297 -6 -77 -4 -87 16 -112 28 -36
77 -38 107 -5 16 17 22 41 27 107 3 47 11 130 18 184 l11 99 -27 24 c-34 29
-70 29 -100 0z"/>
<path d="M4992 2532 c-15 -15 -21 -45 -31 -158 -6 -76 -14 -160 -18 -186 -5
-41 -2 -50 20 -72 50 -50 113 -23 127 54 5 25 14 107 21 183 12 133 11 139 -8
165 -26 35 -83 42 -111 14z"/>
<path d="M42 2297 c-12 -13 -22 -35 -22 -49 0 -43 49 -297 65 -334 17 -42 56
-60 96 -44 46 19 53 53 30 150 -11 47 -25 123 -32 169 -8 50 -20 93 -32 107
-25 32 -76 32 -105 1z"/>
<path d="M4877 1838 c-13 -13 -39 -63 -57 -113 -18 -49 -46 -119 -62 -153 -33
-75 -35 -105 -8 -132 25 -25 81 -26 103 -2 21 23 79 150 116 256 34 96 30 134
-15 155 -36 16 -50 14 -77 -11z"/>
<path d="M232 1617 c-12 -13 -22 -36 -22 -51 0 -26 94 -226 145 -305 29 -47
66 -61 104 -40 14 8 30 27 35 42 8 23 -1 48 -75 193 -46 91 -92 170 -101 175
-29 16 -64 10 -86 -14z"/>
<path d="M4538 1178 c-19 -24 -71 -89 -116 -145 -89 -111 -100 -145 -62 -183
35 -35 78 -26 128 28 89 95 192 241 192 272 0 40 -32 70 -74 70 -29 0 -40 -7
-68 -42z"/>
<path d="M605 1015 c-32 -31 -32 -62 0 -106 40 -54 225 -238 247 -245 49 -15
109 45 91 93 -4 11 -65 80 -135 152 -138 143 -157 153 -203 106z"/>
<path d="M4034 654 c-32 -26 -98 -73 -145 -105 -62 -41 -88 -66 -93 -84 -8
-33 14 -71 50 -87 22 -10 33 -8 67 10 55 29 209 140 253 181 40 38 45 80 14
111 -34 34 -79 26 -146 -26z"/>
<path d="M1136 549 c-32 -25 -36 -79 -8 -107 24 -24 168 -111 254 -153 77 -38
111 -34 137 13 23 40 5 78 -49 107 -25 13 -97 55 -161 93 -64 37 -123 68 -131
68 -8 0 -27 -9 -42 -21z"/>
<path d="M3460 324 c-19 -8 -89 -33 -155 -56 -66 -22 -128 -47 -137 -55 -42
-38 -8 -123 48 -123 38 0 299 88 337 114 25 17 33 30 35 58 6 69 -51 96 -128
62z"/>
<path d="M1769 239 c-28 -28 -23 -86 11 -110 27 -20 233 -75 318 -85 46 -6 56
-4 77 16 28 27 32 65 10 97 -11 16 -37 26 -93 38 -42 9 -118 28 -168 41 -112
29 -128 30 -155 3z"/>
<path d="M2615 153 c-129 -4 -141 -7 -161 -44 -13 -26 -13 -36 -3 -60 6 -17
20 -34 30 -39 21 -12 180 -12 298 -1 74 7 88 12 108 35 28 33 29 56 2 90 -23
29 3 27 -274 19z"/>
</g>
</svg>
